<svg width="547" height="125" viewBox="0 0 547 125" fill="none" xmlns="http://www.w3.org/2000/svg">
<rect width="547" height="125" rx="62.5" fill="#15CD15"/>
<path d="M97.55 50.0625C97.7375 47.0625 98.7031 44.7281 100.447 43.0594C102.209 41.3906 104.506 40.5563 107.338 40.5563C113.75 40.5563 116.956 44.1281 116.956 51.2719C116.956 51.9281 116.919 52.6781 116.844 53.5219C116.769 54.3656 116.609 55.2188 116.366 56.0813C116.122 56.9438 115.775 57.7406 115.325 58.4719C114.894 59.2031 114.313 59.7656 113.581 60.1594V60.3281C114.275 60.6656 114.847 61.1531 115.297 61.7906C115.766 62.4281 116.131 63.1406 116.394 63.9281C116.656 64.7156 116.844 65.5594 116.956 66.4594C117.088 67.3594 117.153 68.2875 117.153 69.2438C117.153 73.425 116.309 76.4906 114.622 78.4406C112.953 80.3719 110.488 81.3375 107.225 81.3375C104.263 81.3375 101.919 80.5125 100.194 78.8625C98.4688 77.2125 97.6063 74.85 97.6063 71.775L103.709 70.5656C103.747 72.3281 104.075 73.5656 104.694 74.2781C105.313 74.9906 106.175 75.3469 107.281 75.3469C108.388 75.3469 109.241 74.85 109.841 73.8563C110.441 72.8625 110.741 71.2688 110.741 69.075C110.741 64.9688 109.569 62.9156 107.225 62.9156H104.806V57.6281H107.338C108.519 57.6281 109.391 57.0844 109.953 55.9969C110.516 54.8906 110.797 53.3906 110.797 51.4969C110.797 49.9219 110.469 48.7031 109.813 47.8406C109.175 46.9781 108.275 46.5469 107.113 46.5469C105.875 46.5469 104.975 47.0156 104.413 47.9531C103.869 48.8719 103.578 50.0156 103.541 51.3844L97.55 50.0625ZM119.938 81C121.288 74.2875 122.628 67.6125 123.959 60.975C125.309 54.3188 126.65 47.6344 127.981 40.9219H134.9L143.028 81H136.672L135.125 72.6469H127.756C127.494 74.0344 127.231 75.4313 126.969 76.8375C126.725 78.225 126.491 79.6125 126.266 81H119.938ZM128.684 66.825H134.141L131.553 50.175H131.272C130.897 52.9313 130.494 55.6875 130.063 58.4438C129.631 61.2 129.172 63.9938 128.684 66.825ZM146.572 81V40.9219H155.459C159.153 40.9219 161.853 41.8781 163.559 43.7906C165.266 45.7031 166.119 48.7969 166.119 53.0719C166.119 54.9469 165.941 56.6531 165.584 58.1906C165.247 59.7281 164.656 61.05 163.813 62.1563C162.969 63.2438 161.863 64.0969 160.494 64.7156C159.125 65.3156 157.409 65.6156 155.347 65.6156H152.816V81H146.572ZM152.816 59.6813H155.009C156.922 59.6813 158.253 59.1375 159.003 58.05C159.753 56.9625 160.128 55.3219 160.128 53.1281C160.128 51.1781 159.772 49.6313 159.059 48.4875C158.347 47.3438 157.034 46.7719 155.122 46.7719H152.816V59.6813ZM170.309 81V40.9219H188.112V46.7719H176.553V57.6844H186.622V63.6188H176.553V75.1219H188.112V81H170.309ZM192.191 81V40.9219H209.544V46.7719H198.434V81H192.191ZM213.622 81V40.9219H219.669V66.3188H219.922L228.247 40.9219H234.322V81H228.191V55.8844H228.022L219.612 81H213.622ZM239.722 71.4938V51.4969C239.722 49.9969 239.881 48.5906 240.2 47.2781C240.537 45.9469 241.091 44.7844 241.859 43.7906C242.628 42.7969 243.631 42.0094 244.869 41.4281C246.125 40.8469 247.653 40.5563 249.453 40.5563C251.103 40.5563 252.519 40.7906 253.7 41.2594C254.9 41.7094 255.894 42.3563 256.681 43.2C257.469 44.025 258.041 45 258.397 46.125C258.772 47.25 258.959 48.4875 258.959 49.8375L252.912 51.3844C252.912 49.9219 252.631 48.7313 252.069 47.8125C251.525 46.8938 250.634 46.4344 249.397 46.4344C248.666 46.4344 248.066 46.5938 247.597 46.9125C247.147 47.2125 246.8 47.6063 246.556 48.0938C246.312 48.5625 246.134 49.0781 246.022 49.6406C245.928 50.2031 245.881 50.7281 245.881 51.2156V71.55C245.881 71.925 245.919 72.3469 245.994 72.8156C246.087 73.2844 246.256 73.725 246.5 74.1375C246.744 74.5313 247.081 74.8594 247.512 75.1219C247.962 75.3844 248.534 75.5156 249.228 75.5156C251.534 75.5156 252.706 73.8656 252.744 70.5656C253.775 70.7531 254.806 70.9219 255.837 71.0719C256.887 71.2031 257.928 71.3438 258.959 71.4938C258.884 74.5313 258.05 76.9313 256.456 78.6938C254.862 80.4563 252.509 81.3375 249.397 81.3375C246.097 81.3375 243.659 80.5031 242.084 78.8344C240.509 77.1656 239.722 74.7188 239.722 71.4938ZM260.647 46.7156V40.9219H279.828V46.7156H273.387V81H267.116V46.7156H260.647ZM283.034 81V40.9219H291.922C295.616 40.9219 298.316 41.8781 300.022 43.7906C301.728 45.7031 302.581 48.7969 302.581 53.0719C302.581 54.9469 302.403 56.6531 302.047 58.1906C301.709 59.7281 301.119 61.05 300.275 62.1563C299.431 63.2438 298.325 64.0969 296.956 64.7156C295.587 65.3156 293.872 65.6156 291.809 65.6156H289.278V81H283.034ZM289.278 59.6813H291.472C293.384 59.6813 294.716 59.1375 295.466 58.05C296.216 56.9625 296.591 55.3219 296.591 53.1281C296.591 51.1781 296.234 49.6313 295.522 48.4875C294.809 47.3438 293.497 46.7719 291.584 46.7719H289.278V59.6813ZM306.547 81V40.9219H312.594V66.3188H312.847L321.172 40.9219H327.247V81H321.116V55.8844H320.947L312.537 81H306.547ZM332.984 81V40.9219H341.872C345.566 40.9219 348.266 41.8781 349.972 43.7906C351.678 45.7031 352.531 48.7969 352.531 53.0719C352.531 54.9469 352.353 56.6531 351.997 58.1906C351.659 59.7281 351.069 61.05 350.225 62.1563C349.381 63.2438 348.275 64.0969 346.906 64.7156C345.538 65.3156 343.822 65.6156 341.759 65.6156H339.228V81H332.984ZM339.228 59.6813H341.422C343.334 59.6813 344.666 59.1375 345.416 58.05C346.166 56.9625 346.541 55.3219 346.541 53.1281C346.541 51.1781 346.184 49.6313 345.472 48.4875C344.759 47.3438 343.447 46.7719 341.534 46.7719H339.228V59.6813ZM354.078 40.9781H360.125L365.075 61.7063H365.384L370.166 40.9219H375.987L367.916 71.8875C367.372 74.0813 366.762 75.8156 366.087 77.0906C365.412 78.3469 364.7 79.3031 363.95 79.9594C363.219 80.6156 362.422 81.0375 361.559 81.225C360.716 81.4125 359.834 81.525 358.916 81.5625H356.666V76.5563H358.128C359.084 76.5563 359.853 76.2469 360.434 75.6281C361.034 74.9906 361.55 73.9969 361.981 72.6469C362.019 72.6094 362.056 72.4969 362.094 72.3094C362.131 72.1219 362.178 71.925 362.234 71.7188C362.291 71.4938 362.347 71.2875 362.403 71.1C362.459 70.9125 362.506 70.7719 362.544 70.6781L354.078 40.9781ZM378.884 81V40.9219H384.931V66.3188H385.184L393.509 40.9219H399.584V81H393.453V55.8844H393.284L384.875 81H378.884ZM381.247 31.8094H385.803C385.841 32.2406 385.962 32.6813 386.169 33.1313C386.394 33.5625 386.666 33.975 386.984 34.3688C387.303 34.7438 387.678 35.0531 388.109 35.2969C388.541 35.5406 389.019 35.6625 389.544 35.6625C390.125 35.6625 390.631 35.5406 391.062 35.2969C391.512 35.0531 391.887 34.7438 392.187 34.3688C392.506 33.975 392.75 33.5625 392.919 33.1313C393.087 32.6813 393.172 32.2406 393.172 31.8094H397.728C397.653 32.6156 397.437 33.4875 397.081 34.425C396.744 35.3625 396.237 36.225 395.562 37.0125C394.887 37.8 394.062 38.4563 393.087 38.9813C392.112 39.5063 390.931 39.7688 389.544 39.7688C388.044 39.7688 386.778 39.5063 385.747 38.9813C384.716 38.4563 383.872 37.8 383.216 37.0125C382.559 36.225 382.072 35.3625 381.753 34.425C381.453 33.4875 381.284 32.6156 381.247 31.8094ZM404.984 71.4938V51.4969C404.984 49.9969 405.144 48.5906 405.463 47.2781C405.8 45.9469 406.353 44.7844 407.122 43.7906C407.891 42.7969 408.894 42.0094 410.131 41.4281C411.388 40.8469 412.916 40.5563 414.716 40.5563C416.366 40.5563 417.781 40.7906 418.963 41.2594C420.163 41.7094 421.156 42.3563 421.944 43.2C422.731 44.025 423.303 45 423.659 46.125C424.034 47.25 424.222 48.4875 424.222 49.8375L418.175 51.3844C418.175 49.9219 417.894 48.7313 417.331 47.8125C416.788 46.8938 415.897 46.4344 414.659 46.4344C413.928 46.4344 413.328 46.5938 412.859 46.9125C412.409 47.2125 412.063 47.6063 411.819 48.0938C411.575 48.5625 411.397 49.0781 411.284 49.6406C411.191 50.2031 411.144 50.7281 411.144 51.2156V71.55C411.144 71.925 411.181 72.3469 411.256 72.8156C411.35 73.2844 411.519 73.725 411.763 74.1375C412.006 74.5313 412.344 74.8594 412.775 75.1219C413.225 75.3844 413.797 75.5156 414.491 75.5156C416.797 75.5156 417.969 73.8656 418.006 70.5656C419.038 70.7531 420.069 70.9219 421.1 71.0719C422.15 71.2031 423.191 71.3438 424.222 71.4938C424.147 74.5313 423.313 76.9313 421.719 78.6938C420.125 80.4563 417.772 81.3375 414.659 81.3375C411.359 81.3375 408.922 80.5031 407.347 78.8344C405.772 77.1656 404.984 74.7188 404.984 71.4938ZM427.231 81L429.481 68.2594C429.744 66.9094 430.166 65.6906 430.747 64.6031C431.328 63.5156 432.134 62.6625 433.166 62.0438C431.328 61.275 430.062 60.1125 429.369 58.5563C428.675 57 428.328 55.1344 428.328 52.9594C428.328 49.0031 429.275 46.0125 431.169 43.9875C433.081 41.9438 435.687 40.9219 438.987 40.9219H448.156V81H441.912V63.9H440.309C439.241 63.9 438.256 64.3219 437.356 65.1656C436.456 66.0094 435.809 67.5094 435.416 69.6656L433.503 81H427.231ZM434.431 52.9594C434.431 54.9094 434.9 56.2594 435.837 57.0094C436.794 57.7594 437.994 58.1344 439.437 58.1344H441.912V46.7719H439.494C437.619 46.7719 436.306 47.3438 435.556 48.4875C434.806 49.6125 434.431 51.1031 434.431 52.9594Z" fill="white"/>
</svg>
