<svg width="505" height="57" viewBox="0 0 505 57" fill="none" xmlns="http://www.w3.org/2000/svg">
<path d="M0.260061 49L7.68236 10.7339H13.7851L10.7612 26.6231H13.4003C13.9867 26.6231 14.5732 26.5498 15.1596 26.4032C15.7827 26.2566 16.3875 25.9817 16.974 25.5785C17.5971 25.1387 18.2019 24.5156 18.7883 23.7092C19.4114 22.9028 20.0345 21.8399 20.6576 20.5204L25.111 10.8439H31.3787L26.3206 21.9498C25.4776 23.5992 24.5795 25.047 23.6266 26.2933C22.7102 27.5395 21.5007 28.4558 19.9979 29.0423C21.3907 29.5554 22.362 30.4351 22.9118 31.6813C23.4983 32.8909 23.8465 34.4303 23.9564 36.2996L24.5612 49H18.5684L18.0736 37.894C18.0369 36.7578 17.872 35.8231 17.5788 35.0901C17.3222 34.3203 16.974 33.7339 16.5341 33.3307C16.0943 32.8909 15.5628 32.5976 14.9397 32.451C14.3533 32.2678 13.7302 32.1761 13.0704 32.1761H9.66164C9.55168 32.616 9.40507 33.2757 9.2218 34.1554C9.07519 35.0351 8.89192 36.0247 8.672 37.1243C8.48874 38.2239 8.26882 39.3785 8.01224 40.5881C7.79232 41.7976 7.5724 42.9522 7.35248 44.0518C7.16922 45.1514 6.98595 46.141 6.80268 47.0207C6.61942 47.9004 6.49113 48.5602 6.41782 49H0.260061ZM46.9737 49L46.5339 40.753H35.9777L32.1841 49H25.5315L43.9498 10.7339H49.9427L53.4614 49H46.9737ZM45.8192 27.5028L45.4893 19.3108H45.2694L41.9156 27.3929L38.4518 35.145H46.204L45.8192 27.5028ZM57.1193 49L64.5416 10.7339H70.6443L67.6204 26.6231H70.2595C70.8459 26.6231 71.4324 26.5498 72.0188 26.4032C72.6419 26.2566 73.2467 25.9817 73.8332 25.5785C74.4563 25.1387 75.0611 24.5156 75.6475 23.7092C76.2706 22.9028 76.8937 21.8399 77.5168 20.5204L81.9702 10.8439H88.2379L83.1798 21.9498C82.3368 23.5992 81.4387 25.047 80.4858 26.2933C79.5694 27.5395 78.3599 28.4558 76.8571 29.0423C78.2499 29.5554 79.2212 30.4351 79.771 31.6813C80.3575 32.8909 80.7057 34.4303 80.8156 36.2996L81.4204 49H75.4276L74.9328 37.894C74.8961 36.7578 74.7312 35.8231 74.438 35.0901C74.1814 34.3203 73.8332 33.7339 73.3933 33.3307C72.9535 32.8909 72.422 32.5976 71.7989 32.451C71.2125 32.2678 70.5894 32.1761 69.9296 32.1761H66.5208C66.4109 32.616 66.2643 33.2757 66.081 34.1554C65.9344 35.0351 65.7511 36.0247 65.5312 37.1243C65.3479 38.2239 65.128 39.3785 64.8714 40.5881C64.6515 41.7976 64.4316 42.9522 64.2117 44.0518C64.0284 45.1514 63.8451 46.141 63.6619 47.0207C63.4786 47.9004 63.3503 48.5602 63.277 49H57.1193ZM110.321 37.3992C109.588 41.1745 108.213 44.1068 106.197 46.196C104.218 48.2853 101.432 49.3299 97.8401 49.3299C95.531 49.3299 93.6067 48.9817 92.0672 48.2853C90.5278 47.5522 89.3182 46.5809 88.4385 45.3713C87.5955 44.1618 87.064 42.7689 86.8441 41.1928C86.6242 39.6167 86.6792 37.9673 87.0091 36.2446L89.7581 22.2797C90.0146 20.9235 90.4361 19.549 91.0226 18.1562C91.609 16.7634 92.3971 15.4989 93.3867 14.3626C94.413 13.2263 95.6776 12.2917 97.1804 11.5586C98.7198 10.8256 100.571 10.459 102.733 10.459C104.749 10.459 106.472 10.8256 107.901 11.5586C109.368 12.255 110.522 13.1897 111.365 14.3626C112.208 15.5355 112.758 16.8734 113.015 18.3761C113.308 19.8423 113.308 21.3451 113.015 22.8845L110.321 37.3992ZM106.857 22.3897C106.967 21.9132 106.985 21.3451 106.912 20.6853C106.839 19.9889 106.619 19.3291 106.252 18.706C105.922 18.0829 105.409 17.5698 104.713 17.1666C104.016 16.7267 103.1 16.5068 101.964 16.5068C100.937 16.5068 100.076 16.7084 99.3796 17.1116C98.6831 17.4781 98.0967 17.9546 97.6202 18.5411C97.1804 19.0909 96.8321 19.6957 96.5756 20.3554C96.319 21.0152 96.1357 21.6383 96.0258 22.2247L93.2768 36.6845C93.0935 37.6375 93.0385 38.5171 93.1118 39.3235C93.1851 40.1299 93.4051 40.8446 93.7716 41.4677C94.1381 42.0542 94.6696 42.5124 95.366 42.8422C96.0624 43.1721 96.9421 43.3371 98.0051 43.3371C99.5445 43.3371 100.827 42.8606 101.854 41.9076C102.88 40.9179 103.558 39.5801 103.888 37.894L106.857 22.3897ZM136.91 24.314C136.36 25.157 135.792 26 135.206 26.8431C134.619 27.6494 134.015 28.4741 133.392 29.3172L119.647 49H113.819L121.241 10.7339H127.399L122.506 35.8048C122.542 35.8048 122.56 35.8231 122.56 35.8598C122.597 35.8598 122.634 35.8598 122.67 35.8598C123.33 34.9068 124.008 33.9355 124.705 32.9458C125.401 31.9195 126.116 30.8749 126.849 29.812C127.875 28.2725 128.957 26.6781 130.093 25.0287C131.229 23.3427 132.365 21.6749 133.502 20.0255C134.674 18.3395 135.811 16.7084 136.91 15.1323C138.01 13.5562 139.054 12.0901 140.044 10.7339H145.762C144.552 17.1483 143.325 23.5259 142.078 29.867C140.869 36.208 139.641 42.5857 138.395 49H132.237C133.043 44.8948 133.831 40.7897 134.601 36.6845C135.407 32.5793 136.232 28.4558 137.075 24.314H136.91ZM133.996 8.36978C132.53 8.36978 131.321 8.11321 130.368 7.60006C129.415 7.08691 128.663 6.44548 128.113 5.67576C127.564 4.86938 127.215 3.9897 127.069 3.03672C126.922 2.04708 126.904 1.09409 127.014 0.177757H131.687C131.614 0.580945 131.614 1.00246 131.687 1.4423C131.797 1.88214 131.962 2.28532 132.182 2.65186C132.402 3.01839 132.713 3.32994 133.117 3.58652C133.52 3.84309 133.996 3.97138 134.546 3.97138C135.133 3.97138 135.664 3.86142 136.141 3.6415C136.617 3.38493 137.039 3.07337 137.405 2.70684C137.772 2.30365 138.065 1.88214 138.285 1.4423C138.541 1.00246 138.706 0.580945 138.78 0.177757H143.673C143.453 1.13074 143.105 2.08373 142.628 3.03672C142.152 3.9897 141.51 4.86938 140.704 5.67576C139.934 6.48213 138.981 7.14189 137.845 7.65504C136.745 8.13153 135.462 8.36978 133.996 8.36978ZM179.128 28.9873C179.128 29.0239 179.11 29.0606 179.073 29.0972C179.073 29.0972 179.073 29.1339 179.073 29.2072C180.503 29.7203 181.511 30.6184 182.097 31.9012C182.72 33.1474 183.032 34.5586 183.032 36.1347C182.958 38.5171 182.5 40.5331 181.657 42.1825C180.851 43.8319 179.769 45.1697 178.413 46.196C177.094 47.1857 175.573 47.9004 173.85 48.3402C172.127 48.7801 170.331 49 168.462 49H157.631C157.851 47.9371 158.144 46.3976 158.511 44.3817C158.914 42.3657 159.354 40.1299 159.83 37.6741C160.343 35.1817 160.856 32.5793 161.369 29.867C161.919 27.1546 162.432 24.5706 162.909 22.1148C163.385 19.6224 163.807 17.3682 164.173 15.3522C164.577 13.3363 164.888 11.7969 165.108 10.7339H175.939C179.018 10.7339 181.382 11.4303 183.032 12.8232C184.681 14.216 185.506 16.3052 185.506 19.0909C185.506 21.62 184.974 23.7275 183.911 25.4136C182.885 27.063 181.291 28.2542 179.128 28.9873ZM167.197 31.9012L164.943 43.2271H170.441C171.467 43.2271 172.384 43.0255 173.19 42.6223C173.997 42.1825 174.656 41.6327 175.169 40.9729C175.719 40.2765 176.122 39.4885 176.379 38.6088C176.672 37.7291 176.819 36.8311 176.819 35.9148C176.819 34.6319 176.434 33.6423 175.664 32.9458C174.931 32.2494 173.868 31.9012 172.475 31.9012H167.197ZM170.221 16.4518L168.242 26.4582H172.475C173.428 26.4582 174.326 26.3299 175.169 26.0733C176.012 25.7801 176.746 25.3769 177.369 24.8638C177.992 24.314 178.487 23.6542 178.853 22.8845C179.22 22.0781 179.403 21.1618 179.403 20.1355C179.403 18.8526 179 17.918 178.193 17.3315C177.387 16.7451 176.287 16.4518 174.895 16.4518H170.221ZM211.708 34.8701C211.708 37.1793 211.36 39.2319 210.663 41.0279C209.967 42.7873 208.977 44.2534 207.694 45.4263C206.448 46.5992 204.964 47.4972 203.241 48.1203C201.518 48.7068 199.612 49 197.523 49H186.142L193.565 10.7339H199.777L196.863 25.9084H201.757C204.945 25.9084 207.401 26.7148 209.124 28.3275C210.847 29.9403 211.708 32.1211 211.708 34.8701ZM218.416 49H212.203L219.625 10.7339H225.838L218.416 49ZM205.33 36.1897C205.33 33.1841 203.791 31.6813 200.712 31.6813H195.709L193.455 43.1721H198.733C200.675 43.1721 202.251 42.5673 203.461 41.3578C204.707 40.1116 205.33 38.3889 205.33 36.1897ZM241.509 49L247.777 16.5068H237.55L231.228 49H225.015L232.437 10.7339H255.089L247.667 49H241.509ZM272.853 49L272.414 40.753H261.857L258.064 49H251.411L269.83 10.7339H275.822L279.341 49H272.853ZM271.699 27.5028L271.369 19.3108H271.149L267.795 27.3929L264.332 35.145H272.084L271.699 27.5028ZM285.693 49C285.436 50.3195 285.18 51.6207 284.923 52.9036C284.703 54.2231 284.447 55.5426 284.154 56.8621H278.93C279.334 54.6629 279.737 52.5004 280.14 50.3745C280.543 48.2486 280.946 46.0861 281.35 43.8869L284.099 43.2821C284.795 42.7689 285.418 42.2008 285.968 41.5777C286.518 40.9546 287.013 40.2215 287.452 39.3785C287.892 38.4988 288.295 37.5092 288.662 36.4096C289.028 35.31 289.395 34.0271 289.762 32.561L294.875 10.7339H315.822C314.759 16.1953 313.696 21.6383 312.633 27.063C311.57 32.4877 310.507 37.9307 309.444 43.392H312.468L309.829 56.8621H304.496L306.091 49H285.693ZM303.397 43.392C304.24 38.847 305.101 34.357 305.981 29.9219C306.86 25.4869 307.74 20.9969 308.62 16.4518H299.108L295.205 33.1108C294.691 35.3466 294.105 37.3259 293.445 39.0486C292.785 40.7713 291.979 42.2191 291.026 43.392H303.397ZM316.129 49L323.551 10.7339H344.609L343.454 16.5618H328.665L326.63 26.7881H339.386L338.286 32.506H325.531L323.496 43.1721H338.286L337.187 49H316.129ZM359.497 16.4518L353.12 49H346.907L353.23 16.4518H344.873L346.027 10.7339H368.899L367.799 16.4518H359.497ZM395.309 16.4518L388.932 49H382.719L389.042 16.4518H380.685L381.839 10.7339H404.711L403.611 16.4518H395.309ZM401.015 49L408.438 10.7339H429.495L428.34 16.5618H413.551L411.516 26.7881H424.272L423.172 32.506H410.417L408.383 43.1721H423.172L422.073 49H401.015ZM451.641 16.5618H438.995L437.181 25.9084H442.404C445.446 25.9084 447.81 26.6964 449.496 28.2725C451.183 29.812 452.026 31.9379 452.026 34.6502C452.026 36.7395 451.714 38.6638 451.091 40.4231C450.468 42.1458 449.57 43.6486 448.397 44.9315C447.261 46.2143 445.886 47.2223 444.273 47.9554C442.661 48.6518 440.846 49 438.83 49H426.405L433.827 10.7339H452.795L451.641 16.5618ZM445.648 35.8048C445.648 34.412 445.226 33.3857 444.383 32.7259C443.54 32.0295 442.404 31.6813 440.975 31.6813H436.026L433.772 43.1721H439.05C441.03 43.1721 442.606 42.549 443.779 41.3028C444.988 40.0199 445.611 38.1873 445.648 35.8048ZM454.385 49L461.807 10.7339H482.864L481.71 16.5618H466.92L464.886 26.7881H477.641L476.541 32.506H463.786L461.752 43.1721H476.541L475.442 49H454.385ZM495.169 10.459C497.954 10.459 500.208 11.2104 501.931 12.7132C503.69 14.216 504.57 16.2686 504.57 18.871C504.57 20.0439 504.46 21.0702 504.24 21.9498C504.02 22.8295 503.709 23.6359 503.306 24.369C502.939 25.0654 502.481 25.7435 501.931 26.4032C501.418 27.0263 500.868 27.6678 500.282 28.3275C499.585 29.1705 498.926 29.9219 498.302 30.5817C497.679 31.2048 497.111 31.8279 496.598 32.451C496.085 33.0375 495.645 33.6423 495.278 34.2654C494.912 34.8885 494.637 35.5666 494.454 36.2996L493.904 38.7737H487.856C488.149 36.7944 488.571 35.0717 489.121 33.6056C489.671 32.1028 490.477 30.765 491.54 29.5921C492.383 28.4925 493.189 27.5578 493.959 26.7881C494.729 25.9817 495.388 25.2303 495.938 24.5339C496.525 23.8008 496.983 23.0678 497.313 22.3347C497.643 21.6016 497.808 20.7403 497.808 19.7506C497.808 18.6877 497.496 17.863 496.873 17.2765C496.286 16.6901 495.407 16.3969 494.234 16.3969C492.951 16.3969 491.833 16.8367 490.88 17.7164C489.964 18.5961 489.396 19.9156 489.176 21.6749C488.149 21.4917 487.141 21.3267 486.152 21.1801C485.162 21.0335 484.173 20.8869 483.183 20.7403C483.916 17.1849 485.272 14.5825 487.251 12.9331C489.267 11.2837 491.906 10.459 495.169 10.459ZM485.877 49C486.06 47.9737 486.243 46.9657 486.427 45.9761C486.647 44.9498 486.867 43.9235 487.086 42.8972H493.134C492.914 43.9235 492.694 44.9498 492.475 45.9761C492.291 46.9657 492.108 47.9737 491.925 49H485.877Z" fill="white"/>
</svg>
