<svg width="760" height="89" viewBox="0 0 760 89" fill="none" xmlns="http://www.w3.org/2000/svg">
<path d="M26.8313 19.1506C25.0116 19.2206 23.3669 19.8155 21.8972 20.9353C20.4275 21.9851 19.4827 23.5598 19.0628 25.6594L14.5486 48.755C14.1287 50.8546 14.4786 52.4293 15.5984 53.4791C16.7182 54.5289 18.1179 55.0888 19.7976 55.1588L26.8313 19.1506ZM46.2526 25.6594C46.6725 23.3498 46.2526 21.7051 44.9928 20.7253C43.8031 19.7455 42.4733 19.2206 41.0036 19.1506L33.9699 55.1588C35.9295 55.2988 37.6092 54.7739 39.009 53.5841C40.4787 52.3943 41.3885 50.7846 41.7384 48.755L46.2526 25.6594ZM55.7008 48.4401C54.511 54.6689 51.9215 59.6029 47.9323 63.2422C43.943 66.8815 38.4141 68.7712 31.3454 68.9112L30.1906 75H16.0183L17.2781 68.4912C14.7586 68.4213 12.344 67.8614 10.0345 66.8116C7.79491 65.7618 5.90527 64.292 4.36556 62.4024C2.82585 60.5128 1.74106 58.2382 1.11118 55.5787C0.4813 52.8492 0.516293 49.7348 1.21616 46.2355L5.2054 25.4494C6.39517 19.1506 9.12465 14.2516 13.3938 10.7522C17.733 7.18291 23.122 5.36326 29.5608 5.29327L30.1906 1.93391H44.3629L43.7331 5.29327C46.6725 5.29327 49.262 5.78318 51.5016 6.76299C53.8111 7.74281 55.6658 9.14254 57.0655 10.9622C58.5352 12.7119 59.5151 14.8465 60.005 17.366C60.5649 19.8155 60.5299 22.615 59.9 25.7644L55.7008 48.4401ZM91.1086 1.93391C93.7681 1.93391 96.1826 2.21386 98.3522 2.77376C100.522 3.33365 102.376 4.27847 103.916 5.60822C105.456 6.86798 106.646 8.61764 107.485 10.8572C108.325 13.0268 108.745 15.7213 108.745 18.9407C108.745 28.4589 106.471 35.7375 101.922 40.7765C97.3724 45.7456 91.2136 48.2301 83.445 48.2301H80.0857L74.9417 75H60.6644L74.8367 1.93391H91.1086ZM86.4895 15.5813L82.8152 34.4777H85.2297C86.1395 34.4777 87.1543 34.3377 88.2741 34.0578C89.3939 33.7079 90.4437 33.113 91.4235 32.2731C92.4033 31.3633 93.2082 30.1036 93.8381 28.4939C94.4679 26.8842 94.7829 24.7846 94.7829 22.1951C94.7829 19.7455 94.223 18.0308 93.1032 17.051C92.0534 16.0712 90.5837 15.5813 88.694 15.5813H86.4895ZM137.797 36.3674L118.9 75H105.043L119.11 1.93391H133.178L125.619 40.8815H125.829L144.62 1.93391H158.793L144.62 75H130.448L138.007 36.3674H137.797ZM156.11 75L170.282 1.93391H201.986L199.362 15.5813H181.935L179.311 28.7038H182.775C188.514 28.7038 192.713 29.9636 195.373 32.4831C198.032 35.0026 199.362 38.7469 199.362 43.716C199.362 47.9851 198.767 52.0444 197.577 55.8936C196.457 59.6729 194.848 62.9973 192.748 65.8667C190.648 68.6662 188.094 70.9058 185.085 72.5855C182.145 74.1952 178.821 75 175.111 75H156.11ZM175.951 61.3526C178.261 61.3526 180.36 60.2678 182.25 58.0982C184.14 55.9286 185.085 52.5693 185.085 48.0201C185.085 46.7604 184.91 45.7806 184.56 45.0807C184.21 44.3108 183.755 43.751 183.195 43.401C182.635 42.9811 181.97 42.7361 181.2 42.6662C180.5 42.5262 179.766 42.4562 178.996 42.4562H176.686L173.012 61.3526H175.951ZM201.014 75L215.186 1.93391H248.675L246.05 15.5813H226.839L223.794 30.9084H240.591L237.862 44.8707H221.065L218.02 61.3526H237.232L234.502 75H201.014ZM274.453 15.5813L262.905 75H248.628L260.176 15.5813H248.943L251.567 1.93391H288.31L285.686 15.5813H274.453ZM309.957 75L307.227 88.8574H295.784L300.718 62.7173L305.338 61.5626C306.597 60.7227 307.647 59.8479 308.487 58.9381C309.327 57.9582 310.027 56.9084 310.587 55.7887C311.216 54.5989 311.741 53.3041 312.161 51.9044C312.581 50.4347 313.001 48.79 313.421 46.9703L323.709 1.93391H358.247L346.595 61.3526H352.054L346.805 88.8574H335.257L337.986 75H309.957ZM326.124 45.9205C325.424 49.0699 324.584 52.0444 323.604 54.8438C322.694 57.5733 321.609 59.7429 320.35 61.3526H332.947L341.976 15.5813H333.052L326.124 45.9205ZM387.05 15.4763C385.861 15.4763 384.846 15.8263 384.006 16.5261C383.166 17.226 382.571 18.3808 382.221 19.9905L375.293 55.8936C375.223 56.2436 375.153 56.5585 375.083 56.8385C375.083 57.0484 375.083 57.2934 375.083 57.5733C375.083 60.1628 376.308 61.4576 378.757 61.4576C379.947 61.4576 380.962 61.1426 381.801 60.5128C382.641 59.8129 383.236 58.6231 383.586 56.9434L390.515 21.2502C390.655 20.9003 390.725 20.5854 390.725 20.3054C390.725 19.9555 390.725 19.6055 390.725 19.2556C390.725 17.9259 390.375 16.981 389.675 16.4212C388.975 15.7913 388.1 15.4763 387.05 15.4763ZM387.89 1.30404C393.139 1.30404 397.339 2.63378 400.488 5.29327C403.637 7.95277 405.212 11.802 405.212 16.8411C405.212 18.6607 405.002 20.5504 404.582 22.51L398.073 57.1534C397.024 62.8923 394.924 67.4064 391.775 70.6958C388.625 73.9852 383.971 75.6299 377.812 75.6299C372.283 75.6299 368.049 74.1952 365.11 71.3257C362.24 68.4562 360.805 64.642 360.805 59.8829C360.805 59.113 360.84 58.3082 360.91 57.4683C361.05 56.6285 361.19 55.7887 361.33 54.9488L368.049 19.6755C368.679 16.5261 369.484 13.8316 370.464 11.5921C371.513 9.28252 372.808 7.35788 374.348 5.81817C375.958 4.27847 377.847 3.15868 380.017 2.45881C382.256 1.68896 384.881 1.30404 387.89 1.30404ZM442.286 75L453.204 18.6257L442.181 26.0793L445.226 10.4373L457.823 1.93391H470.421L456.249 75H442.286ZM502.722 1.30404C505.452 1.30404 507.866 1.82893 509.966 2.87873C512.065 3.85855 513.78 5.25828 515.11 7.07794C516.439 8.8276 517.314 10.9272 517.734 13.3767C518.154 15.7563 518.084 18.3808 517.524 21.2502L509.651 59.5679C508.671 64.8169 506.606 68.8062 503.457 71.5357C500.378 74.2651 496.423 75.6299 491.594 75.6299C488.935 75.6299 486.555 75.175 484.456 74.2651C482.356 73.3553 480.641 72.0606 479.312 70.3809C477.982 68.6312 477.072 66.5666 476.582 64.1871C476.092 61.7375 476.127 59.043 476.687 56.1036L483.931 17.6809C484.91 12.4319 487.08 8.40768 490.439 5.60822C493.799 2.73876 497.893 1.30404 502.722 1.30404ZM501.252 15.2664C500.133 15.2664 499.328 15.5813 498.838 16.2112C498.348 16.7711 498.033 17.5059 497.893 18.4158L489.914 58.5181C489.705 59.498 489.88 60.2678 490.439 60.8277C491.069 61.3876 491.769 61.6675 492.539 61.6675C493.449 61.6675 494.219 61.4226 494.849 60.9327C495.478 60.3728 495.863 59.6729 496.003 58.8331C497.333 52.0444 498.453 46.3405 499.363 41.7213C500.273 37.0322 501.007 33.218 501.567 30.2785C502.197 27.2691 502.687 24.9595 503.037 23.3498C503.387 21.7401 503.632 20.5854 503.772 19.8855C503.912 19.1156 503.982 18.6957 503.982 18.6257C504.052 18.4858 504.087 18.3808 504.087 18.3108C504.227 17.191 503.947 16.4212 503.247 16.0012C502.617 15.5113 501.952 15.2664 501.252 15.2664ZM570.385 1.30404C573.114 1.30404 575.529 1.82893 577.629 2.87873C579.728 3.85855 581.443 5.25828 582.773 7.07794C584.102 8.8276 584.977 10.9272 585.397 13.3767C585.817 15.7563 585.747 18.3808 585.187 21.2502L577.314 59.5679C576.334 64.8169 574.269 68.8062 571.12 71.5357C568.04 74.2651 564.086 75.6299 559.257 75.6299C556.598 75.6299 554.218 75.175 552.118 74.2651C550.019 73.3553 548.304 72.0606 546.974 70.3809C545.645 68.6312 544.735 66.5666 544.245 64.1871C543.755 61.7375 543.79 59.043 544.35 56.1036L551.594 17.6809C552.573 12.4319 554.743 8.40768 558.102 5.60822C561.462 2.73876 565.556 1.30404 570.385 1.30404ZM568.915 15.2664C567.795 15.2664 566.991 15.5813 566.501 16.2112C566.011 16.7711 565.696 17.5059 565.556 18.4158L557.577 58.5181C557.367 59.498 557.542 60.2678 558.102 60.8277C558.732 61.3876 559.432 61.6675 560.202 61.6675C561.112 61.6675 561.882 61.4226 562.511 60.9327C563.141 60.3728 563.526 59.6729 563.666 58.8331C564.996 52.0444 566.116 46.3405 567.026 41.7213C567.935 37.0322 568.67 33.218 569.23 30.2785C569.86 27.2691 570.35 24.9595 570.7 23.3498C571.05 21.7401 571.295 20.5854 571.435 19.8855C571.575 19.1156 571.645 18.6957 571.645 18.6257C571.715 18.4858 571.75 18.3808 571.75 18.3108C571.89 17.191 571.61 16.4212 570.91 16.0012C570.28 15.5113 569.615 15.2664 568.915 15.2664ZM615.494 1.30404C618.223 1.30404 620.638 1.82893 622.737 2.87873C624.837 3.85855 626.551 5.25828 627.881 7.07794C629.211 8.8276 630.086 10.9272 630.506 13.3767C630.926 15.7563 630.856 18.3808 630.296 21.2502L622.422 59.5679C621.442 64.8169 619.378 68.8062 616.228 71.5357C613.149 74.2651 609.195 75.6299 604.366 75.6299C601.706 75.6299 599.327 75.175 597.227 74.2651C595.127 73.3553 593.413 72.0606 592.083 70.3809C590.753 68.6312 589.843 66.5666 589.353 64.1871C588.864 61.7375 588.899 59.043 589.458 56.1036L596.702 17.6809C597.682 12.4319 599.851 8.40768 603.211 5.60822C606.57 2.73876 610.664 1.30404 615.494 1.30404ZM614.024 15.2664C612.904 15.2664 612.099 15.5813 611.609 16.2112C611.119 16.7711 610.804 17.5059 610.664 18.4158L602.686 58.5181C602.476 59.498 602.651 60.2678 603.211 60.8277C603.841 61.3876 604.541 61.6675 605.31 61.6675C606.22 61.6675 606.99 61.4226 607.62 60.9327C608.25 60.3728 608.635 59.6729 608.775 58.8331C610.105 52.0444 611.224 46.3405 612.134 41.7213C613.044 37.0322 613.779 33.218 614.339 30.2785C614.969 27.2691 615.459 24.9595 615.808 23.3498C616.158 21.7401 616.403 20.5854 616.543 19.8855C616.683 19.1156 616.753 18.6957 616.753 18.6257C616.823 18.4858 616.858 18.3808 616.858 18.3108C616.998 17.191 616.718 16.4212 616.018 16.0012C615.389 15.5113 614.724 15.2664 614.024 15.2664ZM660.602 1.30404C663.332 1.30404 665.746 1.82893 667.846 2.87873C669.945 3.85855 671.66 5.25828 672.99 7.07794C674.32 8.8276 675.194 10.9272 675.614 13.3767C676.034 15.7563 675.964 18.3808 675.404 21.2502L667.531 59.5679C666.551 64.8169 664.486 68.8062 661.337 71.5357C658.258 74.2651 654.303 75.6299 649.474 75.6299C646.815 75.6299 644.435 75.175 642.336 74.2651C640.236 73.3553 638.521 72.0606 637.192 70.3809C635.862 68.6312 634.952 66.5666 634.462 64.1871C633.972 61.7375 634.007 59.043 634.567 56.1036L641.811 17.6809C642.791 12.4319 644.96 8.40768 648.319 5.60822C651.679 2.73876 655.773 1.30404 660.602 1.30404ZM659.132 15.2664C658.013 15.2664 657.208 15.5813 656.718 16.2112C656.228 16.7711 655.913 17.5059 655.773 18.4158L647.795 58.5181C647.585 59.498 647.76 60.2678 648.319 60.8277C648.949 61.3876 649.649 61.6675 650.419 61.6675C651.329 61.6675 652.099 61.4226 652.729 60.9327C653.359 60.3728 653.743 59.6729 653.883 58.8331C655.213 52.0444 656.333 46.3405 657.243 41.7213C658.153 37.0322 658.887 33.218 659.447 30.2785C660.077 27.2691 660.567 24.9595 660.917 23.3498C661.267 21.7401 661.512 20.5854 661.652 19.8855C661.792 19.1156 661.862 18.6957 661.862 18.6257C661.932 18.4858 661.967 18.3808 661.967 18.3108C662.107 17.191 661.827 16.4212 661.127 16.0012C660.497 15.5113 659.832 15.2664 659.132 15.2664ZM700.55 75L702.65 65.1319H695.511L697.611 55.1588H704.75L706.429 47.3903H699.186L702.02 34.2678H709.264L716.507 0.0442727H738.448C743.207 0.0442727 747.126 0.919107 750.206 2.66878C753.285 4.41844 755.56 6.728 757.03 9.59746C758.499 12.3969 759.234 15.4763 759.234 18.8357C759.234 21.9851 758.744 25.2395 757.764 28.5988C756.785 31.8882 755.105 34.9676 752.725 37.8371C750.416 40.6365 747.196 42.9461 743.067 44.7658C739.008 46.5154 733.864 47.3903 727.635 47.3903H721.651L719.972 55.1588H734.144L732.044 65.1319H717.872L715.772 75H700.55ZM728.685 34.2678C732.814 34.2678 736.314 33.183 739.183 31.0134C742.052 28.8438 743.487 25.4494 743.487 20.8303C743.487 15.7913 740.618 13.2718 734.879 13.2718H728.895L724.486 34.2678H728.685Z" fill="#FF6A13"/>
</svg>
